<mxfile host="Electron" agent="Mozilla/5.0 (Windows NT 10.0; Win64; x64) AppleWebKit/537.36 (KHTML, like Gecko) draw.io/24.7.8 Chrome/128.0.6613.36 Electron/32.0.1 Safari/537.36" version="24.7.8">
  <diagram name="Page-1" id="y-Qc221y5Zhp6MEsSQQS">
    <mxGraphModel dx="660" dy="1004" grid="1" gridSize="10" guides="1" tooltips="1" connect="1" arrows="1" fold="1" page="1" pageScale="1" pageWidth="827" pageHeight="1169" math="0" shadow="0">
      <root>
        <mxCell id="0" />
        <mxCell id="1" parent="0" />
        <mxCell id="xoHKY8PJz2YJBjRjJf4E-1" value="Order (Заказ)" style="swimlane;fontStyle=0;childLayout=stackLayout;horizontal=1;startSize=30;horizontalStack=0;resizeParent=1;resizeParentMax=0;resizeLast=0;collapsible=1;marginBottom=0;whiteSpace=wrap;html=1;" parent="1" vertex="1">
          <mxGeometry x="840" y="840" width="140" height="130" as="geometry">
            <mxRectangle x="300" y="200" width="110" height="30" as="alternateBounds" />
          </mxGeometry>
        </mxCell>
        <mxCell id="xoHKY8PJz2YJBjRjJf4E-3" value="&lt;font style=&quot;font-size: 11px;&quot;&gt;OrderID (PK)&lt;/font&gt;&lt;div style=&quot;font-size: 11px;&quot;&gt;&lt;font style=&quot;font-size: 11px;&quot;&gt;CustomerID (FK)&lt;/font&gt;&lt;/div&gt;&lt;div style=&quot;font-size: 11px;&quot;&gt;&lt;font style=&quot;font-size: 11px;&quot;&gt;OrderDate&lt;/font&gt;&lt;/div&gt;&lt;div style=&quot;font-size: 11px;&quot;&gt;&lt;font style=&quot;font-size: 11px;&quot;&gt;Status&lt;/font&gt;&lt;/div&gt;&lt;div style=&quot;font-size: 11px;&quot;&gt;&lt;font style=&quot;font-size: 11px;&quot;&gt;Address&lt;br&gt;PaymentID (FK)&lt;/font&gt;&lt;/div&gt;&lt;div style=&quot;font-size: 11px;&quot;&gt;&lt;font style=&quot;font-size: 11px;&quot;&gt;EmployeeID (FK)&lt;/font&gt;&lt;br&gt;&lt;/div&gt;" style="text;strokeColor=none;fillColor=none;align=left;verticalAlign=middle;spacingLeft=4;spacingRight=4;overflow=hidden;points=[[0,0.5],[1,0.5]];portConstraint=eastwest;rotatable=0;whiteSpace=wrap;html=1;" parent="xoHKY8PJz2YJBjRjJf4E-1" vertex="1">
          <mxGeometry y="30" width="140" height="100" as="geometry" />
        </mxCell>
        <mxCell id="xoHKY8PJz2YJBjRjJf4E-7" value="Discount (Скидка)" style="swimlane;fontStyle=0;childLayout=stackLayout;horizontal=1;startSize=30;horizontalStack=0;resizeParent=1;resizeParentMax=0;resizeLast=0;collapsible=1;marginBottom=0;whiteSpace=wrap;html=1;" parent="1" vertex="1">
          <mxGeometry x="1000" y="980" width="140" height="120" as="geometry" />
        </mxCell>
        <mxCell id="xoHKY8PJz2YJBjRjJf4E-8" value="DiscountID (PK)&lt;div&gt;Name&lt;/div&gt;&lt;div&gt;Description&lt;/div&gt;&lt;div&gt;Keyword&lt;/div&gt;&lt;div&gt;Amount&lt;/div&gt;&lt;div&gt;Type&lt;/div&gt;" style="text;strokeColor=none;fillColor=none;align=left;verticalAlign=middle;spacingLeft=4;spacingRight=4;overflow=hidden;points=[[0,0.5],[1,0.5]];portConstraint=eastwest;rotatable=0;whiteSpace=wrap;html=1;" parent="xoHKY8PJz2YJBjRjJf4E-7" vertex="1">
          <mxGeometry y="30" width="140" height="90" as="geometry" />
        </mxCell>
        <mxCell id="xoHKY8PJz2YJBjRjJf4E-31" style="edgeStyle=orthogonalEdgeStyle;rounded=0;orthogonalLoop=1;jettySize=auto;html=1;entryX=0.5;entryY=0;entryDx=0;entryDy=0;endArrow=ERmany;endFill=0;startArrow=ERone;startFill=0;" parent="1" source="xoHKY8PJz2YJBjRjJf4E-9" target="xoHKY8PJz2YJBjRjJf4E-1" edge="1">
          <mxGeometry relative="1" as="geometry" />
        </mxCell>
        <mxCell id="xoHKY8PJz2YJBjRjJf4E-9" value="Customer (Клиент)" style="swimlane;fontStyle=0;childLayout=stackLayout;horizontal=1;startSize=30;horizontalStack=0;resizeParent=1;resizeParentMax=0;resizeLast=0;collapsible=1;marginBottom=0;whiteSpace=wrap;html=1;" parent="1" vertex="1">
          <mxGeometry x="840" y="710" width="140" height="110" as="geometry">
            <mxRectangle x="300" y="200" width="110" height="30" as="alternateBounds" />
          </mxGeometry>
        </mxCell>
        <mxCell id="xoHKY8PJz2YJBjRjJf4E-10" value="CustomerID (PK)&lt;div&gt;UserID (FK)&lt;/div&gt;&lt;div&gt;Phone&lt;/div&gt;&lt;div&gt;Address&lt;/div&gt;" style="text;strokeColor=none;fillColor=none;align=left;verticalAlign=middle;spacingLeft=4;spacingRight=4;overflow=hidden;points=[[0,0.5],[1,0.5]];portConstraint=eastwest;rotatable=0;whiteSpace=wrap;html=1;" parent="xoHKY8PJz2YJBjRjJf4E-9" vertex="1">
          <mxGeometry y="30" width="140" height="80" as="geometry" />
        </mxCell>
        <mxCell id="xoHKY8PJz2YJBjRjJf4E-40" style="edgeStyle=orthogonalEdgeStyle;rounded=0;orthogonalLoop=1;jettySize=auto;html=1;entryX=-0.007;entryY=0.317;entryDx=0;entryDy=0;endArrow=ERone;endFill=0;startArrow=ERmany;startFill=0;entryPerimeter=0;" parent="1" source="xoHKY8PJz2YJBjRjJf4E-13" target="xoHKY8PJz2YJBjRjJf4E-20" edge="1">
          <mxGeometry relative="1" as="geometry">
            <Array as="points" />
          </mxGeometry>
        </mxCell>
        <mxCell id="xoHKY8PJz2YJBjRjJf4E-13" value="Product (Товар)" style="swimlane;fontStyle=0;childLayout=stackLayout;horizontal=1;startSize=30;horizontalStack=0;resizeParent=1;resizeParentMax=0;resizeLast=0;collapsible=1;marginBottom=0;whiteSpace=wrap;html=1;" parent="1" vertex="1">
          <mxGeometry x="520" y="980" width="140" height="140" as="geometry">
            <mxRectangle x="300" y="200" width="110" height="30" as="alternateBounds" />
          </mxGeometry>
        </mxCell>
        <mxCell id="xoHKY8PJz2YJBjRjJf4E-14" value="ProductID (PK)&lt;div&gt;Name&lt;/div&gt;&lt;div&gt;Description&lt;/div&gt;&lt;div&gt;Specs&lt;/div&gt;&lt;div&gt;SupplierID (FK)&lt;/div&gt;&lt;div&gt;Price&lt;/div&gt;&lt;div&gt;Images (Array Type)&lt;/div&gt;" style="text;strokeColor=none;fillColor=none;align=left;verticalAlign=middle;spacingLeft=4;spacingRight=4;overflow=hidden;points=[[0,0.5],[1,0.5]];portConstraint=eastwest;rotatable=0;whiteSpace=wrap;html=1;" parent="xoHKY8PJz2YJBjRjJf4E-13" vertex="1">
          <mxGeometry y="30" width="140" height="110" as="geometry" />
        </mxCell>
        <mxCell id="xoHKY8PJz2YJBjRjJf4E-15" value="Category (Категория)" style="swimlane;fontStyle=0;childLayout=stackLayout;horizontal=1;startSize=30;horizontalStack=0;resizeParent=1;resizeParentMax=0;resizeLast=0;collapsible=1;marginBottom=0;whiteSpace=wrap;html=1;" parent="1" vertex="1">
          <mxGeometry x="360" y="1080" width="140" height="80" as="geometry">
            <mxRectangle x="300" y="200" width="110" height="30" as="alternateBounds" />
          </mxGeometry>
        </mxCell>
        <mxCell id="xoHKY8PJz2YJBjRjJf4E-16" value="CategoryID (PK)&lt;div&gt;Name&lt;/div&gt;&lt;div&gt;Description&lt;/div&gt;&lt;div&gt;&lt;br&gt;&lt;/div&gt;" style="text;strokeColor=none;fillColor=none;align=left;verticalAlign=middle;spacingLeft=4;spacingRight=4;overflow=hidden;points=[[0,0.5],[1,0.5]];portConstraint=eastwest;rotatable=0;whiteSpace=wrap;html=1;" parent="xoHKY8PJz2YJBjRjJf4E-15" vertex="1">
          <mxGeometry y="30" width="140" height="50" as="geometry" />
        </mxCell>
        <mxCell id="xoHKY8PJz2YJBjRjJf4E-17" value="ProductCategory (Категория товара)" style="swimlane;fontStyle=0;childLayout=stackLayout;horizontal=1;startSize=30;horizontalStack=0;resizeParent=1;resizeParentMax=0;resizeLast=0;collapsible=1;marginBottom=0;whiteSpace=wrap;html=1;" parent="1" vertex="1">
          <mxGeometry x="360" y="980" width="140" height="80" as="geometry">
            <mxRectangle x="300" y="200" width="110" height="30" as="alternateBounds" />
          </mxGeometry>
        </mxCell>
        <mxCell id="xoHKY8PJz2YJBjRjJf4E-18" value="&lt;div&gt;ProductCategoryID (PK)&lt;/div&gt;CategoryID (FK)&lt;div&gt;ProductID (FK)&lt;/div&gt;" style="text;strokeColor=none;fillColor=none;align=left;verticalAlign=middle;spacingLeft=4;spacingRight=4;overflow=hidden;points=[[0,0.5],[1,0.5]];portConstraint=eastwest;rotatable=0;whiteSpace=wrap;html=1;" parent="xoHKY8PJz2YJBjRjJf4E-17" vertex="1">
          <mxGeometry y="30" width="140" height="50" as="geometry" />
        </mxCell>
        <mxCell id="xoHKY8PJz2YJBjRjJf4E-19" value="OrderProduct&amp;nbsp;&lt;div&gt;(Товар в заказе)&lt;/div&gt;" style="swimlane;fontStyle=0;childLayout=stackLayout;horizontal=1;startSize=30;horizontalStack=0;resizeParent=1;resizeParentMax=0;resizeLast=0;collapsible=1;marginBottom=0;whiteSpace=wrap;html=1;" parent="1" vertex="1">
          <mxGeometry x="840" y="995" width="140" height="110" as="geometry">
            <mxRectangle x="300" y="200" width="110" height="30" as="alternateBounds" />
          </mxGeometry>
        </mxCell>
        <mxCell id="xoHKY8PJz2YJBjRjJf4E-20" value="OrderItemID (PK)&lt;br&gt;ProductID (FK)&lt;div&gt;OrderID (FK)&lt;/div&gt;&lt;div&gt;DiscountID (FK)&lt;/div&gt;&lt;div&gt;Quantity&lt;/div&gt;&lt;div&gt;&lt;div&gt;&lt;div&gt;&lt;br&gt;&lt;/div&gt;&lt;/div&gt;&lt;/div&gt;" style="text;strokeColor=none;fillColor=none;align=left;verticalAlign=middle;spacingLeft=4;spacingRight=4;overflow=hidden;points=[[0,0.5],[1,0.5]];portConstraint=eastwest;rotatable=0;whiteSpace=wrap;html=1;" parent="xoHKY8PJz2YJBjRjJf4E-19" vertex="1">
          <mxGeometry y="30" width="140" height="80" as="geometry" />
        </mxCell>
        <mxCell id="xoHKY8PJz2YJBjRjJf4E-21" value="Supplier (Поставщик)" style="swimlane;fontStyle=0;childLayout=stackLayout;horizontal=1;startSize=30;horizontalStack=0;resizeParent=1;resizeParentMax=0;resizeLast=0;collapsible=1;marginBottom=0;whiteSpace=wrap;html=1;" parent="1" vertex="1">
          <mxGeometry x="360" y="850" width="140" height="110" as="geometry">
            <mxRectangle x="300" y="200" width="110" height="30" as="alternateBounds" />
          </mxGeometry>
        </mxCell>
        <mxCell id="xoHKY8PJz2YJBjRjJf4E-22" value="SupplierID (PK)&lt;div&gt;Name&lt;/div&gt;&lt;div&gt;Phone&lt;/div&gt;&lt;div&gt;Email&lt;/div&gt;&lt;div&gt;Address&lt;/div&gt;" style="text;strokeColor=none;fillColor=none;align=left;verticalAlign=middle;spacingLeft=4;spacingRight=4;overflow=hidden;points=[[0,0.5],[1,0.5]];portConstraint=eastwest;rotatable=0;whiteSpace=wrap;html=1;" parent="xoHKY8PJz2YJBjRjJf4E-21" vertex="1">
          <mxGeometry y="30" width="140" height="80" as="geometry" />
        </mxCell>
        <mxCell id="xoHKY8PJz2YJBjRjJf4E-24" value="Review (Отзыв)" style="swimlane;fontStyle=0;childLayout=stackLayout;horizontal=1;startSize=30;horizontalStack=0;resizeParent=1;resizeParentMax=0;resizeLast=0;collapsible=1;marginBottom=0;whiteSpace=wrap;html=1;" parent="1" vertex="1">
          <mxGeometry x="360" y="705" width="140" height="120" as="geometry">
            <mxRectangle x="300" y="200" width="110" height="30" as="alternateBounds" />
          </mxGeometry>
        </mxCell>
        <mxCell id="xoHKY8PJz2YJBjRjJf4E-25" value="ReviewID (PK)&lt;div&gt;ProductID (FK)&lt;/div&gt;&lt;div&gt;CustomerID (FK)&lt;br&gt;Rating&lt;/div&gt;&lt;div&gt;Comment&lt;/div&gt;&lt;div&gt;Date&lt;/div&gt;" style="text;strokeColor=none;fillColor=none;align=left;verticalAlign=middle;spacingLeft=4;spacingRight=4;overflow=hidden;points=[[0,0.5],[1,0.5]];portConstraint=eastwest;rotatable=0;whiteSpace=wrap;html=1;" parent="xoHKY8PJz2YJBjRjJf4E-24" vertex="1">
          <mxGeometry y="30" width="140" height="90" as="geometry" />
        </mxCell>
        <mxCell id="xoHKY8PJz2YJBjRjJf4E-30" style="edgeStyle=orthogonalEdgeStyle;rounded=0;orthogonalLoop=1;jettySize=auto;html=1;entryX=-0.006;entryY=0.119;entryDx=0;entryDy=0;endArrow=ERone;endFill=0;startArrow=ERmany;startFill=0;exitX=1.018;exitY=0.161;exitDx=0;exitDy=0;exitPerimeter=0;entryPerimeter=0;" parent="1" source="xoHKY8PJz2YJBjRjJf4E-25" target="xoHKY8PJz2YJBjRjJf4E-10" edge="1">
          <mxGeometry relative="1" as="geometry">
            <Array as="points">
              <mxPoint x="530" y="750" />
              <mxPoint x="839" y="750" />
            </Array>
            <mxPoint x="430" y="700" as="sourcePoint" />
          </mxGeometry>
        </mxCell>
        <mxCell id="xoHKY8PJz2YJBjRjJf4E-37" style="edgeStyle=orthogonalEdgeStyle;rounded=0;orthogonalLoop=1;jettySize=auto;html=1;entryX=1;entryY=0.5;entryDx=0;entryDy=0;endArrow=ERmany;endFill=0;startArrow=ERone;startFill=0;exitX=0.5;exitY=0;exitDx=0;exitDy=0;" parent="1" source="xoHKY8PJz2YJBjRjJf4E-7" target="xoHKY8PJz2YJBjRjJf4E-3" edge="1">
          <mxGeometry relative="1" as="geometry">
            <mxPoint x="1070" y="970" as="sourcePoint" />
          </mxGeometry>
        </mxCell>
        <mxCell id="xoHKY8PJz2YJBjRjJf4E-38" style="edgeStyle=orthogonalEdgeStyle;rounded=0;orthogonalLoop=1;jettySize=auto;html=1;endArrow=ERone;endFill=0;startArrow=ERmany;startFill=0;" parent="1" source="xoHKY8PJz2YJBjRjJf4E-20" edge="1">
          <mxGeometry relative="1" as="geometry">
            <mxPoint x="1000" y="1050" as="targetPoint" />
            <Array as="points">
              <mxPoint x="1000" y="1050" />
            </Array>
          </mxGeometry>
        </mxCell>
        <mxCell id="xoHKY8PJz2YJBjRjJf4E-39" style="edgeStyle=orthogonalEdgeStyle;rounded=0;orthogonalLoop=1;jettySize=auto;html=1;entryX=0.5;entryY=1.011;entryDx=0;entryDy=0;entryPerimeter=0;endArrow=ERmany;endFill=0;startArrow=ERone;startFill=0;" parent="1" source="xoHKY8PJz2YJBjRjJf4E-19" target="xoHKY8PJz2YJBjRjJf4E-3" edge="1">
          <mxGeometry relative="1" as="geometry">
            <Array as="points">
              <mxPoint x="910" y="975" />
              <mxPoint x="910" y="975" />
            </Array>
          </mxGeometry>
        </mxCell>
        <mxCell id="xoHKY8PJz2YJBjRjJf4E-41" value="" style="edgeStyle=orthogonalEdgeStyle;rounded=0;orthogonalLoop=1;jettySize=auto;html=1;endArrow=ERmany;endFill=0;startArrow=ERone;startFill=0;" parent="1" source="xoHKY8PJz2YJBjRjJf4E-18" edge="1">
          <mxGeometry relative="1" as="geometry">
            <mxPoint x="520" y="1035" as="targetPoint" />
          </mxGeometry>
        </mxCell>
        <mxCell id="xoHKY8PJz2YJBjRjJf4E-42" style="edgeStyle=orthogonalEdgeStyle;rounded=0;orthogonalLoop=1;jettySize=auto;html=1;entryX=0.5;entryY=0;entryDx=0;entryDy=0;endArrow=ERmany;endFill=0;startArrow=ERone;startFill=0;" parent="1" source="xoHKY8PJz2YJBjRjJf4E-17" target="xoHKY8PJz2YJBjRjJf4E-15" edge="1">
          <mxGeometry relative="1" as="geometry">
            <Array as="points" />
          </mxGeometry>
        </mxCell>
        <mxCell id="xoHKY8PJz2YJBjRjJf4E-44" style="edgeStyle=orthogonalEdgeStyle;rounded=0;orthogonalLoop=1;jettySize=auto;html=1;entryX=0.5;entryY=0;entryDx=0;entryDy=0;endArrow=ERone;endFill=0;startArrow=ERmany;startFill=0;exitX=1;exitY=0.5;exitDx=0;exitDy=0;" parent="1" source="xoHKY8PJz2YJBjRjJf4E-25" target="xoHKY8PJz2YJBjRjJf4E-13" edge="1">
          <mxGeometry relative="1" as="geometry">
            <Array as="points">
              <mxPoint x="590" y="780" />
            </Array>
          </mxGeometry>
        </mxCell>
        <mxCell id="xoHKY8PJz2YJBjRjJf4E-45" style="edgeStyle=orthogonalEdgeStyle;rounded=0;orthogonalLoop=1;jettySize=auto;html=1;entryX=0.25;entryY=0;entryDx=0;entryDy=0;endArrow=ERone;endFill=0;startArrow=ERone;startFill=0;" parent="1" source="xoHKY8PJz2YJBjRjJf4E-22" target="xoHKY8PJz2YJBjRjJf4E-13" edge="1">
          <mxGeometry relative="1" as="geometry" />
        </mxCell>
        <mxCell id="xoHKY8PJz2YJBjRjJf4E-53" style="edgeStyle=orthogonalEdgeStyle;rounded=0;orthogonalLoop=1;jettySize=auto;html=1;entryX=0.5;entryY=0;entryDx=0;entryDy=0;startArrow=ERoneToMany;startFill=0;endArrow=ERone;endFill=0;" parent="1" source="xoHKY8PJz2YJBjRjJf4E-46" target="xoHKY8PJz2YJBjRjJf4E-50" edge="1">
          <mxGeometry relative="1" as="geometry">
            <Array as="points">
              <mxPoint x="1230" y="760" />
            </Array>
          </mxGeometry>
        </mxCell>
        <mxCell id="xoHKY8PJz2YJBjRjJf4E-46" value="Basket (Корзина)" style="swimlane;fontStyle=0;childLayout=stackLayout;horizontal=1;startSize=30;horizontalStack=0;resizeParent=1;resizeParentMax=0;resizeLast=0;collapsible=1;marginBottom=0;whiteSpace=wrap;html=1;" parent="1" vertex="1">
          <mxGeometry x="1000" y="710" width="140" height="70" as="geometry">
            <mxRectangle x="300" y="200" width="110" height="30" as="alternateBounds" />
          </mxGeometry>
        </mxCell>
        <mxCell id="xoHKY8PJz2YJBjRjJf4E-47" value="BasketID (PK)&lt;div&gt;CustomerID (FK)&lt;/div&gt;" style="text;strokeColor=none;fillColor=none;align=left;verticalAlign=middle;spacingLeft=4;spacingRight=4;overflow=hidden;points=[[0,0.5],[1,0.5]];portConstraint=eastwest;rotatable=0;whiteSpace=wrap;html=1;" parent="xoHKY8PJz2YJBjRjJf4E-46" vertex="1">
          <mxGeometry y="30" width="140" height="40" as="geometry" />
        </mxCell>
        <mxCell id="xoHKY8PJz2YJBjRjJf4E-49" style="edgeStyle=orthogonalEdgeStyle;rounded=0;orthogonalLoop=1;jettySize=auto;html=1;entryX=0;entryY=0.5;entryDx=0;entryDy=0;endArrow=ERone;endFill=0;startArrow=ERone;startFill=0;" parent="1" source="xoHKY8PJz2YJBjRjJf4E-10" target="xoHKY8PJz2YJBjRjJf4E-47" edge="1">
          <mxGeometry relative="1" as="geometry">
            <Array as="points">
              <mxPoint x="990" y="760" />
              <mxPoint x="990" y="760" />
            </Array>
          </mxGeometry>
        </mxCell>
        <mxCell id="xoHKY8PJz2YJBjRjJf4E-50" value="BaskerProduct&amp;nbsp;&lt;div&gt;(Товар в Корзине)&lt;/div&gt;" style="swimlane;fontStyle=0;childLayout=stackLayout;horizontal=1;startSize=30;horizontalStack=0;resizeParent=1;resizeParentMax=0;resizeLast=0;collapsible=1;marginBottom=0;whiteSpace=wrap;html=1;" parent="1" vertex="1">
          <mxGeometry x="1160" y="980" width="140" height="120" as="geometry">
            <mxRectangle x="300" y="200" width="110" height="30" as="alternateBounds" />
          </mxGeometry>
        </mxCell>
        <mxCell id="xoHKY8PJz2YJBjRjJf4E-51" value="BasketProductID (PK)&lt;br&gt;BasketID (FK)&lt;div&gt;ProductID (FK)&lt;/div&gt;&lt;div&gt;&lt;div&gt;DiscountID (FK)&lt;/div&gt;&lt;div&gt;Quantity&lt;/div&gt;&lt;div&gt;&lt;br&gt;&lt;/div&gt;&lt;/div&gt;" style="text;strokeColor=none;fillColor=none;align=left;verticalAlign=middle;spacingLeft=4;spacingRight=4;overflow=hidden;points=[[0,0.5],[1,0.5]];portConstraint=eastwest;rotatable=0;whiteSpace=wrap;html=1;" parent="xoHKY8PJz2YJBjRjJf4E-50" vertex="1">
          <mxGeometry y="30" width="140" height="90" as="geometry" />
        </mxCell>
        <mxCell id="xoHKY8PJz2YJBjRjJf4E-52" style="edgeStyle=orthogonalEdgeStyle;rounded=0;orthogonalLoop=1;jettySize=auto;html=1;entryX=0;entryY=0.5;entryDx=0;entryDy=0;startArrow=ERone;startFill=0;endArrow=ERmany;endFill=0;" parent="1" source="xoHKY8PJz2YJBjRjJf4E-8" target="xoHKY8PJz2YJBjRjJf4E-51" edge="1">
          <mxGeometry relative="1" as="geometry" />
        </mxCell>
        <mxCell id="xoHKY8PJz2YJBjRjJf4E-54" style="edgeStyle=orthogonalEdgeStyle;rounded=0;orthogonalLoop=1;jettySize=auto;html=1;startArrow=ERmany;startFill=0;endArrow=ERone;endFill=0;" parent="1" source="xoHKY8PJz2YJBjRjJf4E-13" edge="1">
          <mxGeometry relative="1" as="geometry">
            <Array as="points">
              <mxPoint x="590" y="1140" />
              <mxPoint x="1230" y="1140" />
            </Array>
            <mxPoint x="1230" y="1100" as="targetPoint" />
          </mxGeometry>
        </mxCell>
        <mxCell id="WYhkB6tOywAtetjvx6o6-1" value="Payment (Оплата)" style="swimlane;fontStyle=0;childLayout=stackLayout;horizontal=1;startSize=30;horizontalStack=0;resizeParent=1;resizeParentMax=0;resizeLast=0;collapsible=1;marginBottom=0;whiteSpace=wrap;html=1;" parent="1" vertex="1">
          <mxGeometry x="680" y="890" width="140" height="80" as="geometry">
            <mxRectangle x="300" y="200" width="110" height="30" as="alternateBounds" />
          </mxGeometry>
        </mxCell>
        <mxCell id="WYhkB6tOywAtetjvx6o6-2" value="PaymentID (PK)&lt;div&gt;Amount&lt;/div&gt;&lt;div&gt;PaymentMethodID (FK)&lt;br&gt;&lt;/div&gt;&lt;div&gt;&lt;br&gt;&lt;/div&gt;" style="text;strokeColor=none;fillColor=none;align=left;verticalAlign=middle;spacingLeft=4;spacingRight=4;overflow=hidden;points=[[0,0.5],[1,0.5]];portConstraint=eastwest;rotatable=0;whiteSpace=wrap;html=1;" parent="WYhkB6tOywAtetjvx6o6-1" vertex="1">
          <mxGeometry y="30" width="140" height="50" as="geometry" />
        </mxCell>
        <mxCell id="WYhkB6tOywAtetjvx6o6-22" style="edgeStyle=orthogonalEdgeStyle;rounded=0;orthogonalLoop=1;jettySize=auto;html=1;startArrow=ERone;startFill=0;endArrow=ERone;endFill=0;" parent="1" source="WYhkB6tOywAtetjvx6o6-2" edge="1">
          <mxGeometry relative="1" as="geometry">
            <mxPoint x="840" y="930" as="targetPoint" />
            <Array as="points">
              <mxPoint x="840" y="930" />
            </Array>
          </mxGeometry>
        </mxCell>
        <mxCell id="WYhkB6tOywAtetjvx6o6-26" style="edgeStyle=orthogonalEdgeStyle;rounded=0;orthogonalLoop=1;jettySize=auto;html=1;entryX=0.5;entryY=0;entryDx=0;entryDy=0;endArrow=ERone;endFill=0;startArrow=ERone;startFill=0;" parent="1" source="WYhkB6tOywAtetjvx6o6-23" target="xoHKY8PJz2YJBjRjJf4E-9" edge="1">
          <mxGeometry relative="1" as="geometry" />
        </mxCell>
        <mxCell id="WYhkB6tOywAtetjvx6o6-23" value="User (Пользователь)" style="swimlane;fontStyle=0;childLayout=stackLayout;horizontal=1;startSize=30;horizontalStack=0;resizeParent=1;resizeParentMax=0;resizeLast=0;collapsible=1;marginBottom=0;whiteSpace=wrap;html=1;" parent="1" vertex="1">
          <mxGeometry x="840" y="540" width="140" height="110" as="geometry">
            <mxRectangle x="300" y="200" width="110" height="30" as="alternateBounds" />
          </mxGeometry>
        </mxCell>
        <mxCell id="WYhkB6tOywAtetjvx6o6-24" value="UserID (PK)&lt;div&gt;FirstName&lt;/div&gt;&lt;div&gt;Surname&lt;/div&gt;&lt;div&gt;Patronym&lt;/div&gt;" style="text;strokeColor=none;fillColor=none;align=left;verticalAlign=middle;spacingLeft=4;spacingRight=4;overflow=hidden;points=[[0,0.5],[1,0.5]];portConstraint=eastwest;rotatable=0;whiteSpace=wrap;html=1;" parent="WYhkB6tOywAtetjvx6o6-23" vertex="1">
          <mxGeometry y="30" width="140" height="80" as="geometry" />
        </mxCell>
        <mxCell id="Ak6YCB8uWblYEtRlR8ix-1" value="Employee (Сотрудник)" style="swimlane;fontStyle=0;childLayout=stackLayout;horizontal=1;startSize=30;horizontalStack=0;resizeParent=1;resizeParentMax=0;resizeLast=0;collapsible=1;marginBottom=0;whiteSpace=wrap;html=1;" vertex="1" parent="1">
          <mxGeometry x="1080" y="810" width="140" height="140" as="geometry">
            <mxRectangle x="300" y="200" width="110" height="30" as="alternateBounds" />
          </mxGeometry>
        </mxCell>
        <mxCell id="Ak6YCB8uWblYEtRlR8ix-2" value="&lt;div&gt;&lt;code style=&quot;&quot;&gt;&lt;font face=&quot;Helvetica&quot;&gt;EmployeeID (PK)&lt;/font&gt;&lt;/code&gt;&amp;nbsp;&lt;/div&gt;&lt;div&gt;&lt;font face=&quot;Helvetica&quot;&gt;FirstName&lt;/font&gt;&lt;/div&gt;&lt;div&gt;&lt;font face=&quot;Helvetica&quot;&gt;Surname&lt;/font&gt;&lt;/div&gt;&lt;div&gt;&lt;font face=&quot;Helvetica&quot;&gt;Patronym&lt;/font&gt;&lt;/div&gt;&lt;div&gt;&lt;span style=&quot;background-color: initial;&quot;&gt;RoleID&lt;/span&gt;&lt;span style=&quot;background-color: initial;&quot;&gt;&amp;nbsp;(FK)&lt;br&gt;&lt;/span&gt;&lt;span style=&quot;background-color: initial;&quot;&gt;Phone&lt;/span&gt;&lt;br&gt;&lt;/div&gt;&lt;div&gt;&lt;code&gt;&lt;code&gt;&lt;code&gt;&lt;font face=&quot;Helvetica&quot;&gt;Email&lt;/font&gt;&lt;/code&gt;&lt;font face=&quot;Helvetica&quot;&gt;&lt;br&gt;&lt;/font&gt;&lt;/code&gt;&lt;/code&gt;&lt;/div&gt;" style="text;strokeColor=none;fillColor=none;align=left;verticalAlign=middle;spacingLeft=4;spacingRight=4;overflow=hidden;points=[[0,0.5],[1,0.5]];portConstraint=eastwest;rotatable=0;whiteSpace=wrap;html=1;" vertex="1" parent="Ak6YCB8uWblYEtRlR8ix-1">
          <mxGeometry y="30" width="140" height="110" as="geometry" />
        </mxCell>
        <mxCell id="Ak6YCB8uWblYEtRlR8ix-4" style="edgeStyle=orthogonalEdgeStyle;rounded=0;orthogonalLoop=1;jettySize=auto;html=1;entryX=1;entryY=0.278;entryDx=0;entryDy=0;entryPerimeter=0;endArrow=ERmany;endFill=0;startArrow=ERone;startFill=0;" edge="1" parent="1" source="Ak6YCB8uWblYEtRlR8ix-2" target="xoHKY8PJz2YJBjRjJf4E-3">
          <mxGeometry relative="1" as="geometry">
            <Array as="points">
              <mxPoint x="1030" y="898" />
            </Array>
          </mxGeometry>
        </mxCell>
        <mxCell id="Ak6YCB8uWblYEtRlR8ix-7" style="edgeStyle=orthogonalEdgeStyle;rounded=0;orthogonalLoop=1;jettySize=auto;html=1;endArrow=ERone;endFill=0;startArrow=ERone;startFill=0;" edge="1" parent="1" source="Ak6YCB8uWblYEtRlR8ix-5" target="WYhkB6tOywAtetjvx6o6-24">
          <mxGeometry relative="1" as="geometry">
            <Array as="points">
              <mxPoint x="1060" y="610" />
              <mxPoint x="1060" y="610" />
            </Array>
          </mxGeometry>
        </mxCell>
        <mxCell id="Ak6YCB8uWblYEtRlR8ix-8" style="edgeStyle=orthogonalEdgeStyle;rounded=0;orthogonalLoop=1;jettySize=auto;html=1;startArrow=ERone;startFill=0;endArrow=ERone;endFill=0;fillColor=#f8cecc;strokeColor=#b85450;" edge="1" parent="1" source="Ak6YCB8uWblYEtRlR8ix-5" target="Ak6YCB8uWblYEtRlR8ix-1">
          <mxGeometry relative="1" as="geometry">
            <Array as="points">
              <mxPoint x="1200" y="730" />
              <mxPoint x="1200" y="730" />
            </Array>
          </mxGeometry>
        </mxCell>
        <mxCell id="Ak6YCB8uWblYEtRlR8ix-5" value="&lt;span style=&quot;color: rgba(0, 0, 0, 0); font-family: monospace; font-size: 0px; text-align: start; text-wrap: nowrap;&quot;&gt;%3CmxGraphModel%3E%3Croot%3E%3CmxCell%20id%3D%220%22%2F%3E%3CmxCell%20id%3D%221%22%20parent%3D%220%22%2F%3E%3CmxCell%20id%3D%222%22%20value%3D%22User%20(%D0%9F%D0%BE%D0%BB%D1%8C%D0%B7%D0%BE%D0%B2%D0%B0%D1%82%D0%B5%D0%BB%D1%8C)%22%20style%3D%22swimlane%3BfontStyle%3D0%3BchildLayout%3DstackLayout%3Bhorizontal%3D1%3BstartSize%3D30%3BhorizontalStack%3D0%3BresizeParent%3D1%3BresizeParentMax%3D0%3BresizeLast%3D0%3Bcollapsible%3D1%3BmarginBottom%3D0%3BwhiteSpace%3Dwrap%3Bhtml%3D1%3B%22%20vertex%3D%221%22%20parent%3D%221%22%3E%3CmxGeometry%20x%3D%22840%22%20y%3D%22540%22%20width%3D%22140%22%20height%3D%22110%22%20as%3D%22geometry%22%3E%3CmxRectangle%20x%3D%22300%22%20y%3D%22200%22%20width%3D%22110%22%20height%3D%2230%22%20as%3D%22alternateBounds%22%2F%3E%3C%2FmxGeometry%3E%3C%2FmxCell%3E%3CmxCell%20id%3D%223%22%20value%3D%22UserID%20(PK)%26lt%3Bdiv%26gt%3BFirstName%26lt%3B%2Fdiv%26gt%3B%26lt%3Bdiv%26gt%3BSurname%26lt%3B%2Fdiv%26gt%3B%26lt%3Bdiv%26gt%3BPatronym%26lt%3B%2Fdiv%26gt%3B%22%20style%3D%22text%3BstrokeColor%3Dnone%3BfillColor%3Dnone%3Balign%3Dleft%3BverticalAlign%3Dmiddle%3BspacingLeft%3D4%3BspacingRight%3D4%3Boverflow%3Dhidden%3Bpoints%3D%5B%5B0%2C0.5%5D%2C%5B1%2C0.5%5D%5D%3BportConstraint%3Deastwest%3Brotatable%3D0%3BwhiteSpace%3Dwrap%3Bhtml%3D1%3B%22%20vertex%3D%221%22%20parent%3D%222%22%3E%3CmxGeometry%20y%3D%2230%22%20width%3D%22140%22%20height%3D%2280%22%20as%3D%22geometry%22%2F%3E%3C%2FmxCell%3E%3C%2Froot%3E%3C%2FmxGraphModel%3E&lt;/span&gt;UserLogin (Логин пользователя)&amp;nbsp;" style="swimlane;fontStyle=0;childLayout=stackLayout;horizontal=1;startSize=30;horizontalStack=0;resizeParent=1;resizeParentMax=0;resizeLast=0;collapsible=1;marginBottom=0;whiteSpace=wrap;html=1;" vertex="1" parent="1">
          <mxGeometry x="1080" y="540" width="140" height="120" as="geometry">
            <mxRectangle x="300" y="200" width="110" height="30" as="alternateBounds" />
          </mxGeometry>
        </mxCell>
        <mxCell id="Ak6YCB8uWblYEtRlR8ix-6" value="&lt;div&gt;LoginID (PK)&lt;/div&gt;&lt;div&gt;Login&lt;/div&gt;&lt;div&gt;PasswordHash&lt;/div&gt;&lt;div&gt;UserType&lt;/div&gt;&lt;div&gt;CustomerID (FK)&lt;/div&gt;&lt;div&gt;EmployeeID (FK)&amp;nbsp;&lt;/div&gt;&lt;div&gt;&lt;br&gt;&lt;/div&gt;" style="text;strokeColor=none;fillColor=none;align=left;verticalAlign=middle;spacingLeft=4;spacingRight=4;overflow=hidden;points=[[0,0.5],[1,0.5]];portConstraint=eastwest;rotatable=0;whiteSpace=wrap;html=1;" vertex="1" parent="Ak6YCB8uWblYEtRlR8ix-5">
          <mxGeometry y="30" width="140" height="90" as="geometry" />
        </mxCell>
        <mxCell id="Ak6YCB8uWblYEtRlR8ix-11" style="edgeStyle=orthogonalEdgeStyle;rounded=0;orthogonalLoop=1;jettySize=auto;html=1;entryX=0.5;entryY=0;entryDx=0;entryDy=0;startArrow=ERone;startFill=0;endArrow=ERone;endFill=0;" edge="1" parent="1" source="Ak6YCB8uWblYEtRlR8ix-9" target="WYhkB6tOywAtetjvx6o6-1">
          <mxGeometry relative="1" as="geometry" />
        </mxCell>
        <mxCell id="Ak6YCB8uWblYEtRlR8ix-9" value="PaymentMethod (Метод оплаты)" style="swimlane;fontStyle=0;childLayout=stackLayout;horizontal=1;startSize=30;horizontalStack=0;resizeParent=1;resizeParentMax=0;resizeLast=0;collapsible=1;marginBottom=0;whiteSpace=wrap;html=1;" vertex="1" parent="1">
          <mxGeometry x="680" y="780" width="140" height="70" as="geometry">
            <mxRectangle x="300" y="200" width="110" height="30" as="alternateBounds" />
          </mxGeometry>
        </mxCell>
        <mxCell id="Ak6YCB8uWblYEtRlR8ix-10" value="&lt;div&gt;PaymentMethodID (PK)&lt;br&gt;&lt;/div&gt;&lt;div&gt;&lt;div&gt;MethodName&lt;/div&gt;&lt;/div&gt;" style="text;strokeColor=none;fillColor=none;align=left;verticalAlign=middle;spacingLeft=4;spacingRight=4;overflow=hidden;points=[[0,0.5],[1,0.5]];portConstraint=eastwest;rotatable=0;whiteSpace=wrap;html=1;" vertex="1" parent="Ak6YCB8uWblYEtRlR8ix-9">
          <mxGeometry y="30" width="140" height="40" as="geometry" />
        </mxCell>
        <mxCell id="Ak6YCB8uWblYEtRlR8ix-15" style="edgeStyle=orthogonalEdgeStyle;rounded=0;orthogonalLoop=1;jettySize=auto;html=1;fillColor=#f8cecc;strokeColor=#b85450;endArrow=ERmany;endFill=0;startArrow=ERone;startFill=0;" edge="1" parent="1" source="Ak6YCB8uWblYEtRlR8ix-12" target="Ak6YCB8uWblYEtRlR8ix-2">
          <mxGeometry relative="1" as="geometry" />
        </mxCell>
        <mxCell id="Ak6YCB8uWblYEtRlR8ix-12" value="EmployeeRoles (Роли пользователей)" style="swimlane;fontStyle=0;childLayout=stackLayout;horizontal=1;startSize=30;horizontalStack=0;resizeParent=1;resizeParentMax=0;resizeLast=0;collapsible=1;marginBottom=0;whiteSpace=wrap;html=1;" vertex="1" parent="1">
          <mxGeometry x="1250" y="860" width="140" height="70" as="geometry">
            <mxRectangle x="300" y="200" width="110" height="30" as="alternateBounds" />
          </mxGeometry>
        </mxCell>
        <mxCell id="Ak6YCB8uWblYEtRlR8ix-13" value="&lt;div&gt;RoleID (PK)&lt;/div&gt;&lt;div&gt;RoleName&amp;nbsp;&lt;/div&gt;" style="text;strokeColor=none;fillColor=none;align=left;verticalAlign=middle;spacingLeft=4;spacingRight=4;overflow=hidden;points=[[0,0.5],[1,0.5]];portConstraint=eastwest;rotatable=0;whiteSpace=wrap;html=1;" vertex="1" parent="Ak6YCB8uWblYEtRlR8ix-12">
          <mxGeometry y="30" width="140" height="40" as="geometry" />
        </mxCell>
      </root>
    </mxGraphModel>
  </diagram>
</mxfile>
